# xmcd
#
# Track frame offsets: 
#        150
#        14540
#        27613
#        41535
#        54407
#        66203
#        78732
#        91467
#        104441
#        118261
#        130277
#        144807
#
# Disc length: 2109 seconds
#
# Revision: 3
# Processed by: cddbd v1.5.2PL0 Copyright (c) Steve Scherf et al.
# Submitted via: ExactAudioCopy v0.99pb5
#
DISCID=a9083b0c
DTITLE=Stevie Wonder - Icon
DYEAR=2010
DGENRE=Pop
TTITLE0=Fingertips Part 2
TTITLE1=Uptight (Everything's Alright)
TTITLE2=Blowin' In The Wind
TTITLE3=A Place In The Sun
TTITLE4=I Was Made To Love Her
TTITLE5=Shoo-Be-Doo-Be-Doo-Da-Day
TTITLE6=For Once In My Life
TTITLE7=My Cherie Amour
TTITLE8=Yester-Me, Yester-You, Yesterday
TTITLE9=Signed, Sealed, Delivered I'm Yours
TTITLE10=Heaven Help Us All
TTITLE11=If You Really Love Me
EXTD=
EXTT0=
EXTT1=
EXTT2=
EXTT3=
EXTT4=
EXTT5=
EXTT6=
EXTT7=
EXTT8=
EXTT9=
EXTT10=
EXTT11=
PLAYORDER=
